<svg width="32" height="32" viewBox="0 0 32 32" fill="none" xmlns="http://www.w3.org/2000/svg">
<path d="M16.0001 18.3433C18.9414 18.3433 21.3334 15.9513 21.3334 13.0099C21.3334 10.0686 18.9414 7.67659 16.0001 7.67659C13.0587 7.67659 10.6667 10.0686 10.6667 13.0099C10.6667 15.9513 13.0587 18.3433 16.0001 18.3433ZM16.0001 10.3433C17.4707 10.3433 18.6667 11.5393 18.6667 13.0099C18.6667 14.4806 17.4707 15.6766 16.0001 15.6766C14.5294 15.6766 13.3334 14.4806 13.3334 13.0099C13.3334 11.5393 14.5294 10.3433 16.0001 10.3433Z" fill="white"/>
<path d="M15.2268 28.7619C15.4524 28.9231 15.7228 29.0097 16.0001 29.0097C16.2774 29.0097 16.5478 28.9231 16.7734 28.7619C17.1788 28.4753 26.7054 21.5966 26.6668 13.0099C26.6668 7.1286 21.8814 2.34326 16.0001 2.34326C10.1188 2.34326 5.33345 7.12859 5.33345 13.0033C5.29478 21.5966 14.8214 28.4753 15.2268 28.7619ZM16.0001 5.00993C20.4121 5.00993 24.0001 8.59793 24.0001 13.0166C24.0281 18.9339 18.1494 24.2473 16.0001 25.9899C13.8521 24.2459 7.97211 18.9313 8.00011 13.0099C8.00011 8.59793 11.5881 5.00993 16.0001 5.00993Z" fill="white"/>
</svg>
