<svg width="32" height="32" viewBox="0 0 32 32" fill="none" xmlns="http://www.w3.org/2000/svg">
<path d="M26.6667 5.00977H5.33334C3.86267 5.00977 2.66667 6.20577 2.66667 7.67643V23.6764C2.66667 25.1471 3.86267 26.3431 5.33334 26.3431H26.6667C28.1373 26.3431 29.3333 25.1471 29.3333 23.6764V7.67643C29.3333 6.20577 28.1373 5.00977 26.6667 5.00977ZM26.6667 7.67643V8.35777L16 16.6551L5.33334 8.3591V7.67643H26.6667ZM5.33334 23.6764V11.7351L15.1813 19.3951C15.4148 19.5785 15.7031 19.6782 16 19.6782C16.2969 19.6782 16.5852 19.5785 16.8187 19.3951L26.6667 11.7351L26.6693 23.6764H5.33334Z" fill="white"/>
</svg>
