<svg width="20" height="20" viewBox="0 0 20 20" fill="none" xmlns="http://www.w3.org/2000/svg">
<path d="M9.07083 1.50126C9.41457 0.684801 10.5853 0.684802 10.9291 1.50126L12.9578 6.32015C13.1028 6.66435 13.4305 6.89953 13.8066 6.92932L19.0726 7.34639C19.9648 7.41706 20.3266 8.51705 19.6468 9.09232L15.6347 12.4876C15.3482 12.7301 15.2229 13.1107 15.3105 13.4733L16.5363 18.5499C16.7439 19.41 15.7968 20.0899 15.0329 19.629L10.5245 16.9085C10.2025 16.7141 9.79745 16.7141 9.47543 16.9085L4.96694 19.629C4.20306 20.0899 3.25591 19.41 3.46358 18.5499L4.68937 13.4733C4.77693 13.1107 4.65177 12.7301 4.36521 12.4876L0.353013 9.09232C-0.326767 8.51705 0.0350183 7.41706 0.927241 7.34639L6.19331 6.92932C6.56945 6.89953 6.89711 6.66435 7.04202 6.32015L9.07083 1.50126Z" fill="white"/>
</svg>
