<svg width="20" height="19" viewBox="0 0 20 19" fill="none" xmlns="http://www.w3.org/2000/svg">
<path d="M9.07078 0.612344C9.41452 -0.204115 10.5853 -0.204114 10.929 0.612346L12.9578 5.43123C13.1028 5.77543 13.4305 6.01061 13.8066 6.0404L19.0726 6.45748C19.9648 6.52814 20.3266 7.62813 19.6468 8.2034L15.6347 11.5987C15.3481 11.8412 15.2229 12.2218 15.3105 12.5843L16.5362 17.661C16.7439 18.5211 15.7968 19.201 15.0329 18.7401L10.5244 16.0196C10.2024 15.8252 9.7974 15.8252 9.47538 16.0196L4.96689 18.7401C4.20301 19.201 3.25586 18.5211 3.46353 17.661L4.68932 12.5843C4.77688 12.2218 4.65172 11.8412 4.36516 11.5987L0.352963 8.2034C-0.326817 7.62813 0.0349687 6.52814 0.927192 6.45748L6.19326 6.0404C6.5694 6.01061 6.89706 5.77543 7.04197 5.43123L9.07078 0.612344Z" fill="white"/>
</svg>
