<svg width="20" height="20" viewBox="0 0 20 20" fill="none" xmlns="http://www.w3.org/2000/svg">
<path d="M9.07078 1.50126C9.41452 0.684801 10.5853 0.684802 10.929 1.50126L12.9578 6.32015C13.1028 6.66435 13.4305 6.89953 13.8066 6.92932L19.0726 7.34639C19.9648 7.41706 20.3266 8.51705 19.6468 9.09232L15.6347 12.4876C15.3481 12.7301 15.2229 13.1107 15.3105 13.4733L16.5362 18.5499C16.7439 19.41 15.7968 20.0899 15.0329 19.629L10.5244 16.9085C10.2024 16.7141 9.7974 16.7141 9.47538 16.9085L4.96689 19.629C4.20301 20.0899 3.25586 19.41 3.46353 18.5499L4.68932 13.4733C4.77688 13.1107 4.65172 12.7301 4.36516 12.4876L0.352963 9.09232C-0.326817 8.51705 0.0349687 7.41706 0.927192 7.34639L6.19326 6.92932C6.5694 6.89953 6.89706 6.66435 7.04197 6.32015L9.07078 1.50126Z" fill="white"/>
</svg>
