<svg width="20" height="20" viewBox="0 0 20 20" fill="none" xmlns="http://www.w3.org/2000/svg">
<path d="M9.07082 1.50126C9.41456 0.684801 10.5853 0.684802 10.9291 1.50126L12.9578 6.32015C13.1028 6.66435 13.4305 6.89953 13.8066 6.92932L19.0726 7.34639C19.9648 7.41706 20.3266 8.51705 19.6468 9.09232L15.6347 12.4876C15.3482 12.7301 15.2229 13.1107 15.3105 13.4733L16.5363 18.5499C16.7439 19.41 15.7968 20.0899 15.0329 19.629L10.5245 16.9085C10.2024 16.7141 9.79744 16.7141 9.47542 16.9085L4.96693 19.629C4.20305 20.0899 3.25589 19.41 3.46357 18.5499L4.68936 13.4733C4.77692 13.1107 4.65176 12.7301 4.36519 12.4876L0.353001 9.09232C-0.326779 8.51705 0.0350068 7.41706 0.92723 7.34639L6.19329 6.92932C6.56944 6.89953 6.89709 6.66435 7.04201 6.32015L9.07082 1.50126Z" fill="white"/>
</svg>
