<svg width="20" height="20" viewBox="0 0 20 20" fill="none" xmlns="http://www.w3.org/2000/svg">
<path d="M9.07075 1.50126C9.4145 0.684801 10.5853 0.684802 10.929 1.50126L12.9578 6.32015C13.1028 6.66435 13.4304 6.89953 13.8065 6.92932L19.0725 7.34639C19.9648 7.41706 20.3265 8.51705 19.6468 9.09232L15.6347 12.4876C15.3481 12.7301 15.2229 13.1107 15.3104 13.4733L16.5362 18.5499C16.7439 19.41 15.7968 20.0899 15.0329 19.629L10.5244 16.9085C10.2024 16.7141 9.79738 16.7141 9.47536 16.9085L4.96687 19.629C4.20299 20.0899 3.25583 19.41 3.46351 18.5499L4.6893 13.4733C4.77686 13.1107 4.6517 12.7301 4.36513 12.4876L0.35294 9.09232C-0.32684 8.51705 0.0349458 7.41706 0.927169 7.34639L6.19323 6.92932C6.56938 6.89953 6.89703 6.66435 7.04194 6.32015L9.07075 1.50126Z" fill="white"/>
</svg>
