<svg width="20" height="20" viewBox="0 0 20 20" fill="none" xmlns="http://www.w3.org/2000/svg">
<path d="M9.07088 1.50126C9.41462 0.684801 10.5854 0.684802 10.9291 1.50126L12.9579 6.32015C13.1029 6.66435 13.4306 6.89953 13.8067 6.92932L19.0727 7.34639C19.9649 7.41706 20.3267 8.51705 19.6469 9.09232L15.6348 12.4876C15.3482 12.7301 15.223 13.1107 15.3106 13.4733L16.5363 18.5499C16.744 19.41 15.7969 20.0899 15.033 19.629L10.5245 16.9085C10.2025 16.7141 9.7975 16.7141 9.47548 16.9085L4.96699 19.629C4.20311 20.0899 3.25596 19.41 3.46363 18.5499L4.68942 13.4733C4.77698 13.1107 4.65182 12.7301 4.36526 12.4876L0.353062 9.09232C-0.326718 8.51705 0.0350679 7.41706 0.927291 7.34639L6.19336 6.92932C6.5695 6.89953 6.89716 6.66435 7.04207 6.32015L9.07088 1.50126Z" fill="white"/>
</svg>
