<svg width="20" height="20" viewBox="0 0 20 20" fill="none" xmlns="http://www.w3.org/2000/svg">
<path d="M9.07068 1.50126C9.41442 0.684801 10.5852 0.684802 10.9289 1.50126L12.9577 6.32015C13.1027 6.66435 13.4304 6.89953 13.8065 6.92932L19.0725 7.34639C19.9647 7.41706 20.3265 8.51705 19.6467 9.09232L15.6346 12.4876C15.348 12.7301 15.2228 13.1107 15.3104 13.4733L16.5361 18.5499C16.7438 19.41 15.7967 20.0899 15.0328 19.629L10.5243 16.9085C10.2023 16.7141 9.7973 16.7141 9.47528 16.9085L4.96679 19.629C4.20291 20.0899 3.25576 19.41 3.46343 18.5499L4.68922 13.4733C4.77678 13.1107 4.65162 12.7301 4.36506 12.4876L0.352864 9.09232C-0.326916 8.51705 0.0348695 7.41706 0.927093 7.34639L6.19316 6.92932C6.5693 6.89953 6.89696 6.66435 7.04187 6.32015L9.07068 1.50126Z" fill="white"/>
</svg>
